<svg xmlns="http://www.w3.org/2000/svg" width="184.491" height="37.704" viewBox="0 0 184.491 37.704">
  <path id="getup_vetor" d="M26.007,23.684a8.946,8.946,0,0,1-4,3.243,8.953,8.953,0,0,1-11.73-11.674,8.772,8.772,0,0,1,7.534-5.509h.7a2.406,2.406,0,0,0,2.41-2.4V2.53a2.4,2.4,0,0,0-2.37-2.4H18.5a18.175,18.175,0,0,0-17.1,11.466A18.187,18.187,0,0,0,5.47,31.8,18.192,18.192,0,0,0,25.7,35.766a18.142,18.142,0,0,0,10.745-12.09H40.86V35.1a2.448,2.448,0,0,0,2.45,2.442H68.956a2.448,2.448,0,0,0,2.45-2.442v-4.74a2.448,2.448,0,0,0-2.45-2.442H50.484V23.668H63.6a2.448,2.448,0,0,0,2.45-2.442v-4.74a2.448,2.448,0,0,0-2.45-2.442H50.484V9.784H84.377V35.222a2.448,2.448,0,0,0,2.442,2.45h4.74A2.448,2.448,0,0,0,94,35.222V9.808H104.49a2.447,2.447,0,0,0,2.442-2.442V2.626A2.447,2.447,0,0,0,104.49.184H43.318A2.45,2.45,0,0,0,40.86,2.626V14.06H19.282a2.448,2.448,0,0,0-2.45,2.442v4.74a2.448,2.448,0,0,0,2.45,2.442ZM120.375,2.546a2.426,2.426,0,0,0-2.4-2.434h-4.94a2.43,2.43,0,0,0-2.418,2.434s-.064,15.661.008,15.885a18.572,18.572,0,0,0,9.416,16.31,18.056,18.056,0,0,0,18.56-.056,17.641,17.641,0,0,0,8.631-11h4.2v11.57a2.45,2.45,0,0,0,2.45,2.45h4.732a2.45,2.45,0,0,0,2.45-2.45V23.692h12.178a16.7,16.7,0,0,0,2.154-.256,11.168,11.168,0,0,0,7.422-5.6,11.836,11.836,0,0,0-.008-11.938A10.856,10.856,0,0,0,175.534.344,8.194,8.194,0,0,0,173.292.08l-19.4.048a2.448,2.448,0,0,0-2.45,2.442V14h-3.723V2.434A2.421,2.421,0,0,0,145.317,0h-4.668a2.418,2.418,0,0,0-2.41,2.434V18.416a8.944,8.944,0,0,1-13.4,7.8,8.908,8.908,0,0,1-4.444-7.751V2.546Zm40.69,7.31,11.586.032A2.174,2.174,0,0,1,174.5,11a2.024,2.024,0,0,1,.024,2.082,1.978,1.978,0,0,1-1.737,1.1l-.144.016H161.05Z" transform="translate(0.059)" fill="#deded0" fill-rule="evenodd"/>
</svg>
