<svg width="72" height="70" viewBox="0 0 72 70" fill="none" xmlns="http://www.w3.org/2000/svg">
<path d="M36.0003 0C16.1835 0 0.114258 16.0664 0.114258 35.886C0.114258 51.7416 10.3967 65.1932 24.6554 69.9384C26.4488 70.2705 27.1073 69.1599 27.1073 68.212C27.1073 67.3564 27.0739 64.5292 27.0587 61.5307C17.0749 63.7015 14.9682 57.2966 14.9682 57.2966C13.3358 53.1486 10.9838 52.0459 10.9838 52.0459C7.72798 49.8185 11.2292 49.8641 11.2292 49.8641C14.8329 50.1174 16.7304 53.5623 16.7304 53.5623C19.931 59.0486 25.1254 57.4623 27.1732 56.5457C27.4952 54.226 28.4254 52.6431 29.4515 51.747C21.4809 50.8393 13.1017 47.7622 13.1017 34.0118C13.1017 30.0941 14.5036 26.8926 16.7993 24.3796C16.4267 23.4756 15.1985 19.8257 17.1469 14.8827C17.1469 14.8827 20.1604 13.9182 27.0181 18.5612C29.8805 17.7658 32.9505 17.3673 36.0003 17.3538C39.05 17.3673 42.1223 17.7658 44.9903 18.5612C51.8399 13.9182 54.8491 14.8827 54.8491 14.8827C56.8023 19.8257 55.5735 23.4756 55.2009 24.3796C57.5017 26.8926 58.8941 30.0938 58.8941 34.0118C58.8941 47.7949 50.499 50.83 42.5082 51.7183C43.7952 52.832 44.9421 55.016 44.9421 58.3638C44.9421 63.1653 44.9005 67.0299 44.9005 68.212C44.9005 69.1669 45.5464 70.2859 47.3657 69.9336C61.6165 65.183 71.886 51.7363 71.886 35.886C71.886 16.0664 55.819 0 36.0003 0Z" fill="white"/>
</svg>
