<svg width="314" height="453" viewBox="0 0 314 453" fill="none" xmlns="http://www.w3.org/2000/svg">
<path fill-rule="evenodd" clip-rule="evenodd" d="M142.132 218.633C143.247 216.571 144.373 214.489 145.502 212.704C146.418 211.267 147.164 209.809 147.87 208.429C150.031 204.208 151.823 200.706 156.993 200.711C158.852 200.711 161.665 200.711 163.195 203.812C169.36 214.111 175.163 224.767 180.864 235.236C182.297 237.866 183.722 240.485 185.146 243.083C171.739 246.902 168.396 247.514 156.994 247.514C146.449 247.514 141.304 246.896 128.646 243.027C128.537 243.027 128.468 242.987 128.425 242.936C132.508 235.481 136.78 227.88 140.83 221.025C141.262 220.244 141.696 219.44 142.132 218.633ZM107.871 233.396C112.835 222.142 125.579 192.178 125.579 189.316C125.579 185.439 122.11 181.87 117.923 181.928L72.8218 189.282C77.2939 203.431 90.9489 222.286 107.871 233.396ZM188.516 190.77C188.457 190.291 188.408 189.885 188.408 189.645C188.408 185.707 190.792 182.086 196.197 181.952L240.541 189.282V190.16C235.783 204.324 221.873 223.443 205.571 233.118L188.703 193C188.703 192.293 188.6 191.456 188.516 190.77ZM169.39 168.558C169.659 167.403 169.929 166.2 170.206 164.964C170.859 162.051 171.554 158.949 172.389 155.83L163.635 145.066H150.058L141.304 155.83C141.915 157.936 142.45 160.127 142.985 162.322C143.499 164.429 144.013 166.539 144.598 168.582C148.696 171.073 156.066 174.827 156.986 174.827C157.588 174.827 164.995 171.043 169.39 168.558ZM67.904 167.03C71.0958 166.14 74.3219 165.177 77.5474 164.213C81.6617 162.984 85.7751 161.755 89.815 160.68C91.3722 160.23 92.955 159.754 94.5483 159.275C98.367 158.126 102.246 156.96 105.978 156.084C112.215 154.554 115.611 152.4 115.611 147.474C115.611 147.102 115.645 146.767 115.678 146.452C115.783 145.436 115.866 144.628 114.698 143.46C107.196 135.389 98.4457 127.922 89.6572 120.423C86.8096 117.993 83.9581 115.559 81.1438 113.101C80.874 113.121 80.6221 113.233 80.3753 114.015C72.2387 128.058 67.3883 145.066 67.3883 159.404C67.3883 160.21 67.6454 164.262 67.904 167.03ZM197.999 146.573C197.915 145.415 197.872 144.829 199.899 142.836C206.286 136.347 212.955 130.428 219.643 124.714C221.338 123.273 223.032 121.843 224.721 120.416L224.723 120.415C225.697 119.593 226.67 118.771 227.64 117.95C229.55 116.342 231.453 114.739 233.342 113.133C241.171 125.965 244.782 138.798 245.981 151.631V165.675C245.981 166.055 245.862 166.689 245.698 167.335C242.069 166.242 238.446 165.187 234.827 164.132C230.237 162.795 225.651 161.459 221.064 160.049C218.73 159.282 216.395 158.714 214.061 158.146C209.864 157.126 205.667 156.105 201.47 153.923C198.657 152.393 198.04 149.909 198.04 147.467C198.04 147.125 198.019 146.834 197.999 146.573ZM95.2504 95.4011C99.614 98.4335 104.016 101.501 108.428 104.574C115.722 109.656 123.04 114.755 130.251 119.743C130.868 120.073 134.594 121.603 135.211 121.603C138.017 121.603 142.984 119.448 142.984 114.818C143.432 104.767 144.553 87.4525 145.137 78.4485C145.358 75.0312 145.502 72.8109 145.502 72.6392V71.617H144.329C128.258 74.2403 111.62 79.8087 95.2504 95.4011ZM168.19 71.6238V72.351C168.406 75.7767 168.606 79.2044 168.805 82.6331C169.448 93.6651 170.092 104.708 171.291 115.73C171.62 120.073 175.963 121.603 178.768 121.603C179.681 121.603 180.923 121.603 181.54 120.985C190.803 115.03 199.909 108.621 209.062 102.179C212.278 99.9158 215.5 97.6481 218.737 95.3946C203.224 80.3562 185.716 73.9545 169.658 71.6238H168.19ZM148.599 14.3483L148.273 11.0935C148.273 6.75075 149.515 0 156.979 0C160.41 0 164.457 2.1542 165.37 7.3682V14.7776C165.37 14.9356 165.27 15.658 165.11 16.7226V19.6623C165.11 19.9621 164.714 22.4797 164.246 25.4605L164.246 25.4623C163.885 27.7607 163.481 30.3342 163.181 32.3786V36.3059C163.479 36.8842 163.859 37.4946 164.254 38.1302C165.551 40.2165 167.016 42.5732 166.317 44.9501C179.379 45.5744 192.736 49.2585 205.175 54.8018C212.035 57.8685 219.184 61.8819 225.715 66.8077C228.87 69.0051 233.455 73.2916 236.773 76.3935C239.018 78.4922 240.682 80.0485 240.932 80.0485C241.475 80.0485 242.116 79.5304 242.799 78.9788C243.305 78.5699 243.833 78.1426 244.362 77.8943C245.604 78.1825 247.497 78.4775 248.739 77.565C252.78 75.4824 257.021 71.032 261.124 66.726C264.279 63.4148 267.353 60.189 270.192 58.1909C272.058 56.9492 274.864 56.6199 275.776 56.6199C280.16 56.6199 283.878 59.3915 283.878 64.6467C283.878 68.874 281.433 71.6701 277.777 74.1469C275.509 76.8315 271.751 78.8405 267.51 81.1074L267.509 81.1078C267.273 81.2341 267.035 81.3612 266.796 81.4893C264.391 82.7567 261.432 84.3633 258.737 86.4414C258.166 87.0404 257.629 87.669 257.136 88.3292C256.37 89.0957 256.186 90.0974 256.013 91.044C255.905 91.6309 255.801 92.1966 255.565 92.6719C255.319 93.0312 254.882 93.3905 254.442 93.7519C253.765 94.3083 253.082 94.8696 253.082 95.4435C253.082 95.6918 254.094 97.3424 255.425 99.5138C257.221 102.443 259.598 106.32 260.855 108.979C261.808 110.509 262.721 112.663 263.338 114.523C264.285 116.053 264.909 117.877 265.527 120.066C266.439 122.22 267.393 125.28 268.01 127.763C268.821 130.377 269.369 133.272 269.918 136.172C270.204 137.687 270.491 139.203 270.816 140.682C270.982 142.754 271.25 144.826 271.511 146.846C271.714 148.419 271.914 149.96 272.058 151.446V164.982C272.058 165.295 271.82 167.231 271.582 169.161C271.346 171.081 271.111 172.996 271.111 173.304C271.111 174.682 271.494 174.723 272.265 174.804C272.883 174.869 273.751 174.96 274.871 175.787C275.599 176.221 276.195 177.01 276.753 177.749C277.369 178.563 277.938 179.317 278.589 179.471C284.108 181.235 290.416 181.746 296.275 182.221C298.667 182.415 300.985 182.603 303.143 182.867C309.386 183.485 313.434 187.793 313.434 192.39C313.434 196.732 309.057 200.711 304.385 200.711C303.303 200.711 301.909 200.45 300.312 200.018C300.195 200.023 300.077 200.025 299.96 200.025C296.952 200.025 291.463 197.942 285.966 195.856L285.966 195.856C282.065 194.375 278.159 192.893 275.134 192.153C274.57 192.289 273.682 192.668 272.8 193.044C271.721 193.504 270.651 193.961 270.199 193.961C269.92 193.961 269.447 193.835 268.928 193.697C268.387 193.553 267.796 193.396 267.323 193.354C267.102 193.421 266.919 193.46 266.789 193.46C266.783 193.46 266.777 193.46 266.771 193.46C266.346 193.782 266.151 194.693 266.151 195.168C261.191 209.362 252.471 225.347 237.838 239.501C230.689 246.615 222.916 252.124 215.767 256.467C215.62 256.611 215.546 256.611 215.509 256.648C215.472 256.685 215.472 256.758 215.472 257.05C215.472 257.523 215.783 258.216 216.093 258.909C216.404 259.602 216.714 260.295 216.714 260.768C216.714 261.051 216.52 261.706 216.308 262.423C216.051 263.29 215.767 264.248 215.767 264.747C215.767 265.317 216.579 266.943 217.189 268.167C217.241 268.269 217.29 268.369 217.338 268.466C218.708 271.18 220.413 274.074 222.209 276.882C223.433 278.423 224.653 280.13 225.703 281.877C228.548 285.798 231.018 290.344 231.018 294.001C231.018 298.014 228.535 302.611 222.916 302.611C217.744 302.611 214.995 298.476 213.2 293.957C211.576 291.293 210.568 287.985 209.72 285.205C209.522 284.556 209.333 283.936 209.147 283.36C208.548 280.698 207.509 278.188 206.528 275.819C206.07 274.715 205.625 273.641 205.244 272.596C205.147 272.315 205.044 272.02 204.93 271.718C204.427 271.044 203.809 270.442 203.034 269.996C199.868 267.958 199.588 267.906 199.554 267.785C199.521 267.668 199.721 267.486 197.745 265.365C182.782 270.62 170.673 272.774 156.369 272.774C142.984 272.774 129.922 270.62 115.947 265.365C115.573 265.855 115.301 266.346 115.05 266.798C114.665 267.49 114.331 268.092 113.758 268.466C113.49 268.719 113.042 268.862 112.547 269.021C111.901 269.227 111.174 269.46 110.657 269.996C109.553 271.248 108.628 272.581 107.837 273.958C106.669 276.627 105.876 279.368 105.132 281.941C105.022 282.32 104.914 282.695 104.806 283.065C104.253 284.357 103.862 285.725 103.46 287.13C102.806 289.422 102.124 291.812 100.664 294.127C100.136 295.531 99.4664 296.937 98.5073 298.309C96.0238 301.705 93.5403 302.322 90.7343 302.322C85.7742 302.322 82.6732 298.309 82.6732 293.678C82.6732 290.101 85.2495 285.83 88.2611 281.463C89.453 279.549 90.8431 277.584 92.2284 275.627C92.9205 274.648 93.6115 273.672 94.276 272.704C96.2061 269.601 97.5948 266.662 97.5948 264.123C97.5948 263.836 97.3649 263.167 97.1316 262.488C96.8916 261.79 96.6481 261.081 96.6481 260.768C96.6481 260.175 97.1281 259.36 97.5704 258.608C97.8395 258.151 98.0946 257.717 98.2191 257.372C78.9205 246.615 58.4144 222.569 51.5539 205.02C51.5068 204.877 51.4547 204.717 51.3978 204.544C50.3535 201.352 47.7327 193.343 45.9694 193.343C45.496 193.343 45.0312 193.497 44.5665 193.652C44.1017 193.806 43.6368 193.961 43.1635 193.961C42.8055 193.961 42.3461 193.674 41.7878 193.327C40.9513 192.805 39.8927 192.146 38.6204 192.104C35.4632 192.808 31.7256 194.255 27.9919 195.701C22.8594 197.689 17.7341 199.674 14.1333 199.723C12.4612 200.158 10.9235 200.423 9.59494 200.423C5.83539 200.423 0.545929 197.94 0.545929 192.101C0.545929 182.761 11.7487 182.282 18.2226 182.006C18.572 181.991 18.9077 181.977 19.2271 181.962C19.7477 181.962 20.2873 181.95 20.8412 181.927C21.0578 181.915 21.2712 181.905 21.4805 181.895C25.7647 181.654 30.7746 180.772 34.4781 179.478C35.7854 179.093 36.9245 177.996 38.0151 176.946C39.5113 175.506 40.9162 174.153 42.5392 174.847C41.9217 168.391 41.6267 159.781 41.6267 158.869C41.6267 142.85 44.3983 127.455 52.1713 111.435C53.6559 108.167 56.4211 103.401 58.4407 99.9199C59.8465 97.4969 60.8911 95.6966 60.8911 95.4572C60.8911 94.8584 60.1445 94.1416 59.4395 93.4647C59.03 93.0714 58.6344 92.6916 58.4075 92.3563C58.0981 91.899 58.0161 91.2849 57.9336 90.6669C57.8515 90.0517 57.7688 89.4326 57.4608 88.9604C56.8695 87.9933 56.2204 87.1293 55.5251 86.3473C53.6022 84.9199 51.5045 83.8013 49.397 82.6775C48.6513 82.2798 47.9044 81.8815 47.1635 81.4687C45.8806 80.6153 44.5587 79.8254 43.2665 79.0533L43.2661 79.0531C40.2902 77.275 37.4724 75.5913 35.654 73.444C32.2934 71.1354 29.8061 68.5627 29.8061 64.6604C29.8061 60.352 32.907 56.6336 38.1964 56.6336C43.5294 56.6336 47.9639 61.3193 52.5565 66.379C53.763 67.6008 54.9629 68.9214 56.1767 70.2571C56.4438 70.5511 56.7115 70.8457 56.9802 71.1403C59.6316 73.83 62.4331 76.2187 65.5631 77.5787C66.4708 77.9394 67.4747 77.8833 68.3366 77.8352C68.9665 77.8 69.5205 77.769 69.9058 77.9081C70.5738 78.0676 71.2438 78.685 71.8225 79.2181C72.3135 79.6705 72.7387 80.0623 73.041 80.0623C73.521 80.0623 75.8995 77.841 78.6835 75.2411C81.1917 72.8987 84.029 70.249 86.1035 68.6395C89.2044 66.1971 92.3054 64.0429 95.4063 62.1837C97.883 60.647 100.401 59.1171 102.884 57.8753C106.315 56.0161 110.033 54.1912 113.463 52.9495C124.337 48.6411 136.782 45.5744 147.361 44.957C147.361 43.4271 147.361 41.856 147.656 40.9436C147.843 40.4244 148.324 39.9985 148.758 39.614C149.086 39.3229 149.388 39.0555 149.515 38.7894C150.177 37.996 150.407 36.7784 150.475 35.6225L148.528 16.0536C148.528 15.5188 148.548 14.9439 148.599 14.3483ZM167.024 446.201C144.404 451.223 135.349 453 130.91 453C128.102 453 127.14 452.286 125.747 451.251L125.709 451.223L125.643 451.172L125.642 451.172L125.641 451.171C125.455 451.028 125.256 450.875 125.03 450.722C123.728 449.833 119.51 444.858 114.485 438.55C112.605 439.257 108.54 440.624 105.183 440.624C104.092 440.624 103.077 440.48 102.247 440.123C100.791 439.493 95.5615 433.098 89.5771 425.129C87.6857 425.835 83.6225 427.184 80.2925 427.184C79.2154 427.184 78.2206 427.047 77.4042 426.69C75.9929 426.087 71.0558 420.096 65.3187 412.501C59.6078 413.718 41.0397 417.607 36.3992 417.607H36.2414C32.9141 417.559 31.8507 415.555 31.542 414.698C30.4855 411.741 32.7632 407.817 35.5417 405.47C38.6691 402.798 49.5972 398.29 53.8039 396.609C47.6915 387.824 42.7412 380.068 42.4636 378.214C42.1548 376.313 42.9438 374.653 44.5629 373.768C49.1881 371.241 59.0414 376.072 70.933 386.698C73.2563 386.231 76.4243 387.006 80.2115 388.91C84.5961 387.813 96.132 385.417 111.137 386.083C114.827 383.152 132.672 369.16 144.202 363.62C136.712 358.39 122.39 353.069 110.664 352.747C97.1007 352.37 82.3711 345.763 82.0487 336.515C81.9732 334.272 82.0281 332.152 83.5854 330.903C85.3386 329.499 87.543 330.071 91.9182 331.206L91.9416 331.212C94.7681 331.946 98.6306 332.948 103.92 333.881C117.343 336.254 133.316 335.596 151.806 334.835L151.82 334.834L151.839 334.834C156.841 334.628 162.008 334.416 167.359 334.251C177.494 333.91 185.854 337.642 192.322 342.397C196.736 341.468 212.526 338.01 222.168 334.148C233.324 329.627 246.736 320.283 246.873 320.187C247.655 319.645 248.705 319.666 249.46 320.242C285.45 347.725 280.819 377.919 280.606 379.188C280.455 380.073 279.783 380.779 278.905 380.965C278.644 381.02 252.924 386.618 236.075 400.195C231.684 403.742 227.65 407.872 223.376 412.249L223.373 412.252C210.853 425.066 196.665 439.588 167.024 446.201ZM56.392 400.292C58.3766 403.09 60.427 405.923 62.4369 408.643C52.4887 410.738 39.3271 413.285 36.3169 413.236C35.8435 413.23 35.6172 413.147 35.5691 413.113C35.5074 412.742 36.2689 410.588 38.3682 408.811C40.677 406.836 50.2097 402.719 56.392 400.292ZM67.4229 408.184C58.3856 395.967 47.4622 380.117 46.772 377.479C47.4996 377.035 53.8514 377.444 67.5038 389.512C67.2846 390.171 67.2289 390.906 67.3543 391.681C67.7541 394.316 77.6346 408.94 86.8391 421.446C83.7016 422.487 80.2738 423.156 79.1056 422.663C77.8305 421.796 73.5055 416.357 68.4137 409.519C68.2683 408.941 67.9009 408.472 67.4229 408.184ZM103.969 436.103C105.141 436.596 108.515 435.952 111.623 434.925C102.57 423.363 92.2787 409.357 91.551 407.007C90.9045 404.849 91.3533 403.435 91.9335 402.577C86.864 398.137 82.8247 395.327 79.7249 393.575C79.6396 393.599 79.5927 393.613 79.5856 393.615C79.3729 393.684 79.1602 393.711 78.9475 393.711C78.0076 393.711 77.1432 393.101 76.8551 392.154C76.8507 392.14 76.8465 392.126 76.8425 392.112C73.6802 390.711 72.0176 390.729 71.6627 390.947C72.781 395.173 100.401 433.647 103.969 436.103ZM99.4749 401.704C98.3082 401.207 97.3054 400.949 96.4487 400.851C96.3408 400.675 96.2061 400.511 96.045 400.366C92.3925 397.088 88.9309 394.351 85.7512 392.203C91.4585 391.131 100.713 389.93 111.748 390.494C112.276 390.514 112.811 390.35 113.23 390.014C113.449 389.835 135.684 372.005 147.566 366.894C147.595 366.882 147.622 366.869 147.65 366.856C147.662 366.85 147.674 366.844 147.687 366.838C149.022 371.227 151.558 375.44 156.204 377.973C156.533 378.152 156.89 378.241 157.247 378.241C158.022 378.241 158.777 377.829 159.168 377.102C159.744 376.039 159.353 374.715 158.296 374.131C148.191 368.616 151.093 351.142 151.127 350.963C151.333 349.777 150.537 348.638 149.343 348.432C148.163 348.233 147.018 349.022 146.812 350.209C146.745 350.584 146.049 354.73 146.43 359.835C138.306 354.289 123.519 348.717 110.787 348.363C98.6923 348.027 86.6247 342.079 86.4257 336.357C86.3914 335.356 86.4188 334.786 86.4531 334.457C87.3244 334.533 89.1082 334.992 90.8439 335.445C93.7322 336.2 97.6975 337.222 103.159 338.189C117.051 340.645 133.242 339.98 151.999 339.205C156.986 338.999 162.152 338.786 167.49 338.621C176.455 338.333 183.95 341.732 189.799 346.057C190.056 346.415 190.416 346.687 190.825 346.839C199.636 353.739 204.418 362.493 204.495 362.64C205.065 363.703 206.396 364.108 207.459 363.539C208.522 362.969 208.927 361.645 208.358 360.582C208.052 360.006 204.052 352.71 196.635 345.942C203.255 344.472 215.502 341.53 223.801 338.203C233.447 334.293 244.3 327.212 248.046 324.688C276.408 347.026 276.826 371.037 276.428 377.04C270.418 378.488 248.746 384.354 233.324 396.785C228.727 400.497 224.604 404.716 220.241 409.189C208.152 421.565 194.445 435.595 166.07 441.927C130.996 449.72 130.279 449.179 128.351 447.725L128.351 447.724C128.09 447.525 127.816 447.32 127.5 447.107C124.331 444.911 97.3069 409.676 95.7222 405.683C95.6604 405.47 95.6261 405.299 95.6193 405.182C95.9005 405.175 96.6895 405.278 97.7529 405.731C99.2537 406.377 104.626 409.809 111.079 415.306C111.098 415.447 111.131 415.588 111.179 415.727C111.494 416.639 112.338 417.202 113.244 417.202L113.253 417.202C118.947 422.285 125.206 428.82 130.285 436.356C130.821 437.152 131.808 437.502 132.728 437.228L151.627 431.565C153.075 432.529 154.565 433.45 156.095 434.319C156.438 434.518 156.808 434.607 157.172 434.607C157.933 434.607 158.674 434.209 159.079 433.496C159.676 432.446 159.305 431.108 158.256 430.511C135.575 417.62 121.703 391.804 121.566 391.543C120.996 390.473 119.679 390.068 118.602 390.638C117.532 391.207 117.127 392.531 117.696 393.602C117.795 393.789 118.279 394.692 119.131 396.129L101.176 401.011C100.643 401.155 100.208 401.486 99.9247 401.915C99.7561 401.831 99.6059 401.76 99.4749 401.704ZM118.06 415.656C120.736 418.143 123.482 420.913 126.147 423.926L135.499 418.025C135.546 417.995 135.593 417.968 135.641 417.942C133.586 415.778 131.693 413.614 129.971 411.518L118.06 415.656ZM133.002 432.576C131.724 430.755 130.384 428.993 129.006 427.296L137.839 421.723C138.164 421.518 138.416 421.241 138.588 420.927C141.211 423.483 144.062 425.994 147.128 428.345L133.002 432.576ZM114.324 412.319C110.564 409.09 107.104 406.501 104.413 404.67L121.546 400.012C123.003 402.256 124.86 404.952 127.094 407.883L114.324 412.319ZM165.418 415.164C166.241 415.164 167.037 414.698 167.408 413.895C178.247 390.569 203.549 386.467 203.803 386.426C204.996 386.247 205.82 385.129 205.641 383.935C205.463 382.741 204.365 381.925 203.151 382.097C202.019 382.268 175.29 386.542 163.435 412.05C162.928 413.147 163.401 414.451 164.499 414.958C164.794 415.096 165.109 415.164 165.418 415.164Z" fill="#3CB8B7"/>
</svg>
