<svg width="314" height="453" viewBox="0 0 314 453" fill="none" xmlns="http://www.w3.org/2000/svg">
<path fill-rule="evenodd" clip-rule="evenodd" d="M142.133 218.633C143.248 216.571 144.373 214.488 145.502 212.704C146.419 211.267 147.164 209.809 147.871 208.429C150.031 204.208 151.824 200.706 156.994 200.711C158.853 200.711 161.666 200.711 163.196 203.812C169.36 214.111 175.163 224.767 180.865 235.236C182.297 237.866 183.723 240.485 185.147 243.083C171.739 246.902 168.396 247.514 156.994 247.514C146.449 247.514 141.304 246.896 128.646 243.027C128.537 243.027 128.469 242.987 128.425 242.936C132.508 235.481 136.781 227.88 140.83 221.025C141.263 220.244 141.697 219.44 142.133 218.633ZM107.871 233.396C112.835 222.142 125.579 192.178 125.579 189.316C125.579 185.439 122.11 181.87 117.923 181.928L72.8223 189.282C77.2944 203.431 90.9494 222.286 107.871 233.396ZM188.516 190.77C188.458 190.291 188.408 189.885 188.408 189.645C188.408 185.707 190.793 182.086 196.198 181.952L240.541 189.282V190.16C235.784 204.324 221.874 223.443 205.571 233.118L188.703 193C188.703 192.293 188.601 191.456 188.516 190.77ZM169.39 168.558C169.66 167.403 169.929 166.2 170.206 164.964C170.859 162.051 171.554 158.949 172.389 155.83L163.635 145.066H150.058L141.304 155.83C141.916 157.936 142.45 160.127 142.985 162.322C143.499 164.429 144.014 166.539 144.599 168.582C148.696 171.073 156.067 174.827 156.987 174.827C157.589 174.827 164.996 171.043 169.39 168.558ZM67.9044 167.03C71.0963 166.14 74.3224 165.177 77.5479 164.213C81.6623 162.984 85.7756 161.755 89.8155 160.68C91.3727 160.23 92.9555 159.754 94.5488 159.275C98.3675 158.126 102.247 156.96 105.979 156.084C112.215 154.554 115.611 152.4 115.611 147.474C115.611 147.102 115.646 146.767 115.678 146.452C115.783 145.436 115.866 144.628 114.699 143.46C107.197 135.389 98.4462 127.922 89.6577 120.423C86.8101 117.993 83.9586 115.559 81.1443 113.101C80.8745 113.121 80.6226 113.233 80.3758 114.015C72.2392 128.058 67.3888 145.066 67.3888 159.404C67.3888 160.21 67.6458 164.262 67.9044 167.03ZM198 146.573C197.916 145.415 197.873 144.829 199.899 142.836C206.286 136.347 212.954 130.429 219.643 124.715C221.337 123.274 223.032 121.843 224.721 120.417L224.722 120.416C225.696 119.594 226.669 118.772 227.639 117.951C229.55 116.343 231.453 114.74 233.342 113.133C241.171 125.965 244.782 138.798 245.982 151.631V165.675C245.982 166.055 245.862 166.689 245.698 167.335C242.07 166.242 238.447 165.187 234.827 164.132C230.237 162.795 225.651 161.459 221.064 160.049C218.73 159.282 216.396 158.714 214.062 158.146C209.865 157.126 205.668 156.105 201.47 153.923C198.658 152.393 198.04 149.909 198.04 147.467C198.04 147.125 198.019 146.834 198 146.573ZM95.2509 95.4011C99.6145 98.4335 104.017 101.501 108.429 104.574C115.722 109.656 123.041 114.755 130.251 119.743C130.869 120.073 134.594 121.603 135.212 121.603C138.017 121.603 142.985 119.448 142.985 114.818C143.432 104.767 144.554 87.4526 145.137 78.4485C145.358 75.0312 145.502 72.8109 145.502 72.6392V71.617H144.33C128.258 74.2403 111.621 79.8087 95.2509 95.4011ZM168.19 71.6238V72.351C168.406 75.7767 168.606 79.2044 168.806 82.6331C169.449 93.6651 170.092 104.708 171.291 115.73C171.62 120.073 175.963 121.603 178.769 121.603C179.681 121.603 180.923 121.603 181.541 120.985C190.804 115.03 199.91 108.621 209.062 102.179C212.278 99.9158 215.5 97.6481 218.737 95.3946C203.224 80.3562 185.716 73.9545 169.659 71.6238H168.19ZM148.6 14.3483L148.274 11.0935C148.274 6.75075 149.516 0 156.98 0C160.41 0 164.458 2.1542 165.37 7.3682V14.7776C165.37 14.9356 165.27 15.658 165.11 16.7226V19.6623C165.11 19.9621 164.715 22.4797 164.247 25.4605L164.246 25.4623C163.885 27.7607 163.481 30.3342 163.182 32.3786V36.3059C163.48 36.8842 163.859 37.4946 164.254 38.1302C165.551 40.2165 167.017 42.5732 166.317 44.9501C179.38 45.5744 192.737 49.2585 205.175 54.8018C212.036 57.8685 219.184 61.8819 225.715 66.8077C228.87 69.0051 233.455 73.2916 236.773 76.3935C239.018 78.4922 240.683 80.0485 240.932 80.0485C241.476 80.0485 242.117 79.5304 242.799 78.9788C243.305 78.5699 243.834 78.1426 244.362 77.8943C245.604 78.1825 247.498 78.4775 248.739 77.565C252.781 75.4824 257.021 71.032 261.124 66.726C264.279 63.4148 267.353 60.189 270.192 58.1909C272.058 56.9492 274.864 56.6199 275.777 56.6199C280.161 56.6199 283.879 59.3915 283.879 64.6467C283.879 68.874 281.434 71.6701 277.778 74.1469C275.51 76.8315 271.751 78.8405 267.511 81.1074L267.504 81.1108C267.27 81.2361 267.034 81.3622 266.797 81.4893C264.391 82.7567 261.433 84.3633 258.737 86.4414C258.166 87.0404 257.629 87.669 257.137 88.3292C256.37 89.0957 256.187 90.0974 256.013 91.044C255.906 91.6309 255.802 92.1966 255.566 92.6719C255.32 93.0312 254.882 93.3905 254.442 93.7519C253.765 94.3083 253.082 94.8696 253.082 95.4435C253.082 95.6918 254.094 97.3424 255.425 99.5138C257.221 102.443 259.598 106.32 260.855 108.979C261.809 110.509 262.721 112.663 263.339 114.523C264.285 116.053 264.91 117.877 265.527 120.066C266.44 122.22 267.393 125.28 268.011 127.763C268.822 130.377 269.369 133.272 269.918 136.172C270.205 137.687 270.492 139.203 270.817 140.682C270.982 142.754 271.25 144.826 271.512 146.846C271.715 148.419 271.914 149.96 272.058 151.446V164.982C272.058 165.295 271.82 167.231 271.583 169.161C271.347 171.081 271.112 172.996 271.112 173.304C271.112 174.682 271.494 174.723 272.266 174.804C272.884 174.869 273.751 174.96 274.871 175.787C275.599 176.221 276.195 177.01 276.754 177.749C277.369 178.563 277.939 179.317 278.59 179.471C284.109 181.235 290.416 181.746 296.275 182.221C298.667 182.415 300.985 182.603 303.143 182.867C309.386 183.485 313.434 187.793 313.434 192.39C313.434 196.732 309.057 200.711 304.385 200.711C303.304 200.711 301.91 200.45 300.312 200.018C300.195 200.023 300.078 200.025 299.96 200.025C296.953 200.025 291.464 197.942 285.967 195.856L285.967 195.856C282.065 194.375 278.16 192.893 275.135 192.154C274.571 192.289 273.683 192.668 272.801 193.044C271.721 193.504 270.651 193.961 270.199 193.961C269.92 193.961 269.447 193.835 268.929 193.697C268.388 193.553 267.797 193.396 267.324 193.354C267.103 193.421 266.92 193.46 266.79 193.46C266.784 193.46 266.778 193.46 266.771 193.46C266.347 193.782 266.151 194.693 266.151 195.168C261.191 209.362 252.472 225.347 237.838 239.501C230.689 246.615 222.916 252.124 215.768 256.467C215.62 256.611 215.546 256.611 215.51 256.648C215.473 256.685 215.473 256.758 215.473 257.05C215.473 257.523 215.783 258.216 216.094 258.909C216.404 259.602 216.714 260.295 216.714 260.768C216.714 261.051 216.52 261.706 216.308 262.423C216.051 263.29 215.768 264.248 215.768 264.747C215.768 265.317 216.579 266.943 217.19 268.167C217.241 268.269 217.291 268.369 217.339 268.466C218.709 271.18 220.414 274.074 222.21 276.882C223.433 278.423 224.653 280.13 225.704 281.877C228.548 285.798 231.019 290.344 231.019 294.001C231.019 298.014 228.535 302.611 222.916 302.611C217.744 302.611 214.996 298.476 213.201 293.957C211.577 291.293 210.568 287.985 209.721 285.205C209.523 284.556 209.334 283.936 209.148 283.36C208.549 280.698 207.509 278.188 206.528 275.819C206.071 274.715 205.626 273.641 205.244 272.596C205.147 272.315 205.044 272.02 204.931 271.718C204.428 271.044 203.809 270.442 203.035 269.996C199.869 267.958 199.588 267.906 199.555 267.785C199.522 267.668 199.721 267.486 197.745 265.365C182.782 270.62 170.674 272.774 156.369 272.774C142.984 272.774 129.922 270.62 115.947 265.365C115.573 265.855 115.301 266.346 115.05 266.798C114.666 267.49 114.331 268.092 113.759 268.466C113.491 268.719 113.043 268.862 112.547 269.021C111.901 269.227 111.174 269.46 110.658 269.996C109.553 271.248 108.629 272.581 107.838 273.958C106.669 276.627 105.877 279.368 105.132 281.941L105.129 281.952C105.021 282.327 104.913 282.698 104.806 283.065C104.253 284.357 103.862 285.725 103.461 287.13L103.461 287.13C102.806 289.422 102.124 291.812 100.664 294.127C100.137 295.531 99.4669 296.937 98.5078 298.309C96.0242 301.705 93.5408 302.322 90.7348 302.322C85.7746 302.322 82.6737 298.309 82.6737 293.678C82.6737 290.101 85.25 285.83 88.2616 281.463C89.4535 279.549 90.8436 277.584 92.2289 275.627C92.921 274.648 93.612 273.672 94.2765 272.704C96.2066 269.601 97.5953 266.662 97.5953 264.123C97.5953 263.836 97.3653 263.167 97.1321 262.488C96.8921 261.79 96.6486 261.081 96.6486 260.768C96.6486 260.175 97.1286 259.36 97.5709 258.608C97.84 258.151 98.0951 257.717 98.2196 257.372C78.921 246.615 58.4149 222.569 51.5544 205.02C51.5073 204.877 51.4551 204.717 51.3983 204.544C50.354 201.352 47.7332 193.343 45.9699 193.343C45.4966 193.343 45.0317 193.497 44.5669 193.652C44.1021 193.806 43.6374 193.961 43.164 193.961C42.806 193.961 42.3466 193.674 41.7883 193.327C40.9518 192.805 39.8932 192.146 38.6209 192.104C35.4637 192.808 31.7262 194.255 27.9924 195.701C22.8599 197.689 17.7346 199.674 14.1338 199.723C12.4616 200.158 10.924 200.423 9.59543 200.423C5.83588 200.423 0.546417 197.94 0.546417 192.101C0.546417 182.761 11.7492 182.282 18.2231 182.006C18.5725 181.991 18.9082 181.977 19.2276 181.962C19.7482 181.962 20.2877 181.95 20.8416 181.927C21.0583 181.915 21.2717 181.905 21.4811 181.895C25.7654 181.654 30.7751 180.772 34.4785 179.478C35.7859 179.093 36.925 177.996 38.0156 176.946C39.5118 175.506 40.9167 174.153 42.5397 174.847C41.9222 168.391 41.6272 159.781 41.6272 158.869C41.6272 142.85 44.3988 127.455 52.1718 111.435C53.6563 108.167 56.4216 103.401 58.4412 99.9199C59.847 97.4969 60.8915 95.6966 60.8915 95.4572C60.8915 94.8584 60.145 94.1416 59.44 93.4647C59.0304 93.0714 58.6349 92.6916 58.408 92.3563C58.0986 91.899 58.0166 91.2849 57.9341 90.6669C57.8519 90.0517 57.7693 89.4326 57.4613 88.9604C56.87 87.9933 56.2209 87.1293 55.5256 86.3473C53.6028 84.9199 51.505 83.8013 49.3975 82.6775C48.6518 82.2798 47.9048 81.8815 47.164 81.4687C45.8811 80.6153 44.5591 79.8254 43.267 79.0533L43.2666 79.0531C40.2907 77.275 37.4729 75.5913 35.6545 73.444C32.2939 71.1355 29.8065 68.5628 29.8065 64.6604C29.8065 60.352 32.9075 56.6336 38.1969 56.6336C43.5299 56.6336 47.9644 61.3193 52.557 66.379C53.7635 67.6008 54.9634 68.9214 56.1772 70.2571C56.4442 70.5511 56.712 70.8457 56.9807 71.1403C59.632 73.83 62.4335 76.2187 65.5636 77.5787C66.4713 77.9394 67.4752 77.8833 68.3371 77.8352C68.9669 77.8 69.521 77.769 69.9062 77.9081C70.5743 78.0676 71.2443 78.685 71.823 79.2181C72.314 79.6705 72.7392 80.0623 73.0415 80.0623C73.5215 80.0623 75.9 77.841 78.684 75.2411C81.1922 72.8987 84.0295 70.249 86.104 68.6395C89.2049 66.1971 92.3059 64.0429 95.4068 62.1837C97.8835 60.647 100.401 59.1171 102.885 57.8753C106.315 56.0161 110.033 54.1912 113.464 52.9495C124.338 48.6411 136.783 45.5744 147.362 44.957C147.362 43.4271 147.362 41.856 147.657 40.9436C147.844 40.4244 148.325 39.9985 148.758 39.614C149.087 39.3229 149.389 39.0555 149.516 38.7894C150.177 37.9961 150.407 36.7785 150.476 35.6226L148.528 16.0536C148.528 15.5188 148.549 14.9439 148.6 14.3483ZM167.024 446.201C144.405 451.223 135.349 453 130.91 453C128.102 453 127.14 452.286 125.747 451.251L125.71 451.223L125.643 451.172L125.643 451.172L125.642 451.171C125.456 451.028 125.257 450.875 125.031 450.722C123.729 449.833 119.511 444.858 114.486 438.55C112.606 439.257 108.541 440.624 105.184 440.624C104.093 440.624 103.078 440.48 102.247 440.123C100.792 439.493 95.562 433.098 89.5776 425.129C87.6862 425.835 83.6229 427.184 80.293 427.184C79.2159 427.184 78.2211 427.047 77.4047 426.69C75.9934 426.087 71.0563 420.096 65.3192 412.501C59.6083 413.718 41.0402 417.607 36.3997 417.607H36.2419C32.9146 417.559 31.8512 415.555 31.5425 414.698C30.486 411.741 32.7636 407.817 35.5422 405.47C38.6696 402.798 49.5977 398.29 53.8044 396.609C47.692 387.824 42.7417 380.068 42.4641 378.214C42.1553 376.313 42.9443 374.653 44.5634 373.768C49.1886 371.241 59.0419 376.072 70.9335 386.698C73.2568 386.231 76.4248 387.006 80.212 388.91C84.5966 387.813 96.1325 385.417 111.138 386.083C114.827 383.152 132.673 369.16 144.202 363.62C136.713 358.39 122.391 353.069 110.664 352.747C97.1012 352.37 82.3716 345.763 82.0492 336.515C81.9737 334.272 82.0286 332.152 83.5859 330.903C85.3391 329.499 87.5435 330.071 91.9187 331.206L91.942 331.212C94.7686 331.946 98.6311 332.948 103.921 333.881C117.343 336.254 133.316 335.596 151.806 334.835L151.821 334.834L151.839 334.834C156.842 334.628 162.008 334.416 167.36 334.251C177.495 333.91 185.854 337.642 192.323 342.397C196.737 341.468 212.526 338.01 222.169 334.148C233.324 329.627 246.736 320.283 246.874 320.187C247.656 319.645 248.705 319.666 249.46 320.242C285.45 347.725 280.819 377.919 280.607 379.188C280.456 380.073 279.783 380.779 278.905 380.965C278.645 381.02 252.925 386.618 236.075 400.195C231.684 403.742 227.65 407.872 223.376 412.249L223.373 412.252C210.854 425.066 196.666 439.588 167.024 446.201ZM56.3925 400.292C58.377 403.09 60.4275 405.923 62.4374 408.643C52.4892 410.738 39.3275 413.285 36.3174 413.236C35.844 413.23 35.6176 413.147 35.5696 413.113C35.5079 412.742 36.2694 410.588 38.3687 408.811C40.6775 406.836 50.2101 402.719 56.3925 400.292ZM67.4233 408.184C58.3861 395.967 47.4627 380.117 46.7725 377.479C47.5001 377.035 53.8519 377.444 67.5043 389.512C67.2851 390.171 67.2294 390.906 67.3548 391.681C67.7545 394.316 77.6351 408.94 86.8396 421.446C83.7021 422.487 80.2743 423.156 79.1061 422.663C77.831 421.796 73.506 416.357 68.4142 409.519C68.2688 408.941 67.9014 408.472 67.4233 408.184ZM103.969 436.103C105.142 436.596 108.516 435.952 111.623 434.925C102.57 423.363 92.2791 409.357 91.5515 407.007C90.905 404.849 91.3538 403.435 91.934 402.577C86.8645 398.137 82.8252 395.327 79.7254 393.575C79.6858 393.586 79.6545 393.595 79.6316 393.602L79.6089 393.609L79.5861 393.615C79.3734 393.684 79.1607 393.711 78.948 393.711C78.0081 393.711 77.1437 393.101 76.8556 392.154C76.8512 392.14 76.847 392.126 76.843 392.112C73.6807 390.711 72.0181 390.729 71.6632 390.947C72.7814 395.173 100.402 433.647 103.969 436.103ZM99.4754 401.704C98.3087 401.207 97.3059 400.949 96.4491 400.851C96.3413 400.675 96.2066 400.511 96.0455 400.366C92.393 397.088 88.9314 394.351 85.7517 392.203C91.459 391.131 100.714 389.93 111.748 390.494C112.276 390.514 112.812 390.35 113.23 390.014C113.45 389.835 135.685 372.005 147.567 366.894C147.593 366.882 147.62 366.87 147.646 366.858C147.659 366.851 147.673 366.844 147.687 366.838C149.023 371.227 151.558 375.44 156.204 377.973C156.534 378.152 156.891 378.241 157.247 378.241C158.023 378.241 158.777 377.829 159.168 377.102C159.745 376.039 159.353 374.715 158.297 374.131C148.191 368.616 151.093 351.142 151.128 350.963C151.334 349.777 150.538 348.638 149.344 348.432C148.164 348.233 147.018 349.022 146.812 350.209C146.745 350.584 146.05 354.73 146.431 359.835C138.306 354.289 123.52 348.717 110.788 348.363C98.6928 348.027 86.6252 342.079 86.4262 336.357C86.3919 335.356 86.4193 334.786 86.4536 334.457C87.3249 334.533 89.1087 334.992 90.8444 335.445C93.7327 336.2 97.698 337.222 103.159 338.189C117.052 340.645 133.242 339.98 151.999 339.205C156.987 338.999 162.153 338.786 167.49 338.621C176.455 338.333 183.951 341.732 189.799 346.057C190.057 346.415 190.416 346.687 190.826 346.839C199.637 353.739 204.418 362.493 204.496 362.64C205.065 363.703 206.396 364.108 207.459 363.539C208.523 362.969 208.928 361.645 208.358 360.582C208.052 360.006 204.053 352.71 196.635 345.942C203.256 344.472 215.502 341.53 223.802 338.203C233.448 334.293 244.301 327.212 248.047 324.688C276.408 347.026 276.827 371.037 276.429 377.04C270.419 378.488 248.747 384.354 233.324 396.785C228.728 400.497 224.604 404.716 220.241 409.189C208.153 421.565 194.446 435.595 166.07 441.927C130.996 449.72 130.279 449.179 128.352 447.725L128.351 447.724C128.091 447.525 127.816 447.32 127.501 447.107C124.331 444.911 97.3074 409.676 95.7227 405.683C95.6609 405.47 95.6266 405.299 95.6198 405.182C95.901 405.175 96.69 405.278 97.7534 405.731C99.2542 406.377 104.626 409.809 111.079 415.306C111.098 415.447 111.131 415.588 111.179 415.727C111.495 416.639 112.339 417.202 113.244 417.202L113.254 417.202C118.947 422.285 125.206 428.82 130.286 436.356C130.821 437.152 131.809 437.502 132.728 437.228L151.628 431.565C153.076 432.529 154.565 433.45 156.095 434.319C156.438 434.518 156.809 434.607 157.172 434.607C157.934 434.607 158.675 434.209 159.079 433.496C159.676 432.446 159.306 431.108 158.256 430.511C135.575 417.62 121.703 391.804 121.566 391.543C120.997 390.473 119.679 390.068 118.602 390.638C117.532 391.207 117.127 392.531 117.697 393.602C117.796 393.789 118.28 394.692 119.132 396.129L101.177 401.011C100.643 401.155 100.209 401.486 99.9251 401.915C99.7566 401.831 99.6064 401.76 99.4754 401.704ZM118.06 415.656C120.736 418.143 123.482 420.913 126.147 423.926L135.5 418.025C135.526 418.008 135.553 417.992 135.58 417.977C135.588 417.972 135.596 417.967 135.604 417.963C135.617 417.956 135.629 417.949 135.642 417.942C133.586 415.778 131.694 413.614 129.972 411.518L118.06 415.656ZM133.003 432.576C131.724 430.755 130.384 428.993 129.006 427.296L137.839 421.723C138.164 421.518 138.416 421.241 138.589 420.927C141.212 423.483 144.062 425.994 147.128 428.345L133.003 432.576ZM114.324 412.319C110.564 409.09 107.105 406.501 104.414 404.67L121.546 400.012C123.004 402.256 124.861 404.952 127.095 407.883L114.324 412.319ZM165.418 415.164C166.242 415.164 167.038 414.698 167.408 413.895C178.248 390.569 203.549 386.467 203.803 386.426C204.997 386.247 205.82 385.129 205.642 383.935C205.463 382.741 204.366 381.925 203.151 382.097C202.019 382.268 175.291 386.542 163.436 412.05C162.928 413.147 163.401 414.451 164.499 414.958C164.794 415.096 165.11 415.164 165.418 415.164Z" fill="#D7D7D7"/>
</svg>
