<svg width="132" height="21" viewBox="0 0 132 21" fill="none" xmlns="http://www.w3.org/2000/svg">
<g clip-path="url(#clip0_1402_476)">
<path fill-rule="evenodd" clip-rule="evenodd" d="M121.206 20.3077C127.296 20.3077 132 15.7987 132 10.1538V10.0959C132 4.451 127.35 0 121.265 0C115.175 0 110.466 4.50895 110.466 10.1538V10.2118C110.466 15.8566 115.117 20.3077 121.206 20.3077ZM121.265 14.5469C118.728 14.5469 117.119 12.4605 117.119 10.1538V10.0959C117.119 7.81823 118.699 5.7608 121.206 5.7608C123.743 5.7608 125.352 7.84721 125.352 10.1538V10.2118C125.352 12.4895 123.773 14.5469 121.265 14.5469Z" fill="#00999A"/>
<path fill-rule="evenodd" clip-rule="evenodd" d="M91.0459 20.031H97.6407V14.4673H99.05L102.773 20.031H110.296L105.703 13.4124C108.099 12.2707 109.591 10.2944 109.591 7.45459V7.40244C109.591 5.39717 108.974 3.95406 107.788 2.78336C106.408 1.4214 104.183 0.557861 100.688 0.557861H91.0459V20.031ZM97.6407 9.81919V6.0115H100.518C102.039 6.0115 103.026 6.62003 103.026 7.87188V7.92983C103.026 9.12372 102.069 9.81919 100.489 9.81919H97.6407Z" fill="#00999A"/>
<path d="M84.0813 20.031H77.4866V6.06365H71.6787V0.557861H89.8891V6.06365H84.0813V20.031Z" fill="#00999A"/>
<path d="M63.0293 20.2489C68.3262 20.2489 71.7381 17.7452 71.7381 13.6593V13.6014C71.7381 9.67778 68.3556 8.23468 63.3112 7.31319C61.2265 6.92488 60.6862 6.59454 60.6862 6.06135V6.00918C60.6862 5.53395 61.1384 5.2036 62.125 5.2036C63.9571 5.2036 66.1828 5.78316 68.0443 7.12193L71.2566 2.72309C68.9781 0.943852 66.1592 0.0571289 62.354 0.0571289C56.9102 0.0571289 53.9799 2.92014 53.9799 6.61772V6.67567C53.9799 10.7905 57.8675 12.0424 62.2952 12.9348C64.4093 13.3522 65.0318 13.6593 65.0318 14.2157V14.2679C65.0318 14.8011 64.5209 15.1024 63.3405 15.1024C61.0268 15.1024 58.5722 14.436 56.4345 12.8248L52.9111 16.9686C55.4186 19.1362 59.0243 20.2489 63.0293 20.2489Z" fill="#00999A"/>
<path d="M45.1592 0.418945H51.754V19.892H45.1592V0.418945Z" fill="#00999A"/>
<path d="M31.1122 14.1892L31.118 6.09281H32.2162C35.2346 6.09281 37.1783 7.31568 37.1783 10.1265V10.1845C37.1783 12.9954 35.2346 14.2182 32.2162 14.2182H31.1473V19.892H31.8521C39.8268 19.892 43.8318 15.8004 43.8318 10.0454V9.98744C43.8318 4.23243 39.9149 0.418945 32.0753 0.418945H24.0593V6.51589L19.0796 0.418945H14.7046V14.2299H19.3439V7.86046L24.535 14.2299L31.1122 14.1892Z" fill="#00999A"/>
<path d="M13.8295 8.03248C13.8295 12.7501 11.0519 14.6047 6.87073 14.6047C2.69544 14.6047 0 12.7096 0 8.13101V0.515625H4.75666V8.07306C4.75666 9.78855 5.65515 10.5188 6.91184 10.5188C8.1744 10.5188 9.07289 9.8465 9.07289 8.17157V0.515625H13.8295V8.03248Z" fill="#00999A"/>
</g>
<defs>
<clipPath id="clip0_1402_476">
<rect width="132" height="20.3077" fill="white"/>
</clipPath>
</defs>
</svg>
