<svg width="72" height="70" viewBox="0 0 72 70" fill="none" xmlns="http://www.w3.org/2000/svg">
<path fill-rule="evenodd" clip-rule="evenodd" d="M15.7479 44.2502C15.7479 48.3223 12.4615 51.6088 8.38935 51.6088C4.31723 51.6088 1.03076 48.3113 1.03076 44.2502C1.03076 40.1891 4.31723 36.8916 8.38935 36.8916H15.7479V44.2502ZM19.4217 44.2502C19.4217 40.1781 22.7082 36.8916 26.7803 36.8916C30.8524 36.8916 34.1389 40.1781 34.1389 44.2502V62.6411C34.1389 66.7133 30.8524 69.9997 26.7803 69.9997C22.7082 69.9997 19.4217 66.7133 19.4217 62.6411V44.2502Z" fill="#E01E5A"/>
<path fill-rule="evenodd" clip-rule="evenodd" d="M26.7778 14.7172C22.7056 14.7172 19.4192 11.4307 19.4192 7.35859C19.4192 3.28647 22.7056 0 26.7778 0C30.8499 0 34.1364 3.28647 34.1364 7.35859V14.7172H26.7778ZM26.7778 18.4463C30.8499 18.4463 34.1364 21.7327 34.1364 25.8049C34.1364 29.877 30.8499 33.1635 26.7778 33.1635H8.33149C4.25937 33.1635 0.9729 29.8659 0.9729 25.8049C0.9729 21.7438 4.25937 18.4463 8.33149 18.4463H26.7778Z" fill="#36C5F0"/>
<path fill-rule="evenodd" clip-rule="evenodd" d="M56.2545 25.8049C56.2545 21.7327 59.5409 18.4463 63.6131 18.4463C67.6852 18.4463 70.9717 21.7327 70.9717 25.8049C70.9717 29.877 67.6852 33.1635 63.6131 33.1635H56.2545V25.8049ZM52.5807 25.8049C52.5807 29.877 49.2942 33.1635 45.2221 33.1635C41.15 33.1635 37.8635 29.877 37.8635 25.8049V7.35859C37.8635 3.28647 41.15 0 45.2221 0C49.2942 0 52.5807 3.28647 52.5807 7.35859V25.8049Z" fill="#2EB67D"/>
<path fill-rule="evenodd" clip-rule="evenodd" d="M45.2221 55.2826C49.2942 55.2826 52.5807 58.569 52.5807 62.6411C52.5807 66.7133 49.2942 69.9997 45.2221 69.9997C41.15 69.9997 37.8635 66.7133 37.8635 62.6411V55.2826H45.2221ZM45.2221 51.6088C41.15 51.6088 37.8635 48.3223 37.8635 44.2502C37.8635 40.1781 41.15 36.8916 45.2221 36.8916H63.6684C67.7405 36.8916 71.027 40.1781 71.027 44.2502C71.027 48.3223 67.7405 51.6088 63.6684 51.6088H45.2221Z" fill="#ECB22E"/>
</svg>
