<svg width="31" height="30" viewBox="0 0 31 30" fill="none" xmlns="http://www.w3.org/2000/svg">
<path d="M15.3948 5.21729C9.87077 5.21729 5.39136 9.69592 5.39136 15.2207C5.39136 19.6406 8.25765 23.3903 12.2324 24.7131C12.7323 24.8057 12.9159 24.4961 12.9159 24.2318C12.9159 23.9933 12.9065 23.2052 12.9023 22.3694C10.1192 22.9745 9.532 21.1891 9.532 21.1891C9.07696 20.0328 8.42131 19.7254 8.42131 19.7254C7.51373 19.1045 8.48972 19.1172 8.48972 19.1172C9.49426 19.1879 10.0232 20.1481 10.0232 20.1481C10.9154 21.6775 12.3634 21.2353 12.9342 20.9798C13.024 20.3331 13.2833 19.8919 13.5693 19.6421C11.3475 19.3891 9.01169 18.5313 9.01169 14.6983C9.01169 13.6062 9.40247 12.7138 10.0424 12.0133C9.93856 11.7613 9.59618 10.7438 10.1393 9.36593C10.1393 9.36593 10.9793 9.09706 12.891 10.3913C13.6889 10.1696 14.5447 10.0585 15.3948 10.0548C16.245 10.0585 17.1014 10.1696 17.9008 10.3913C19.8102 9.09706 20.6491 9.36593 20.6491 9.36593C21.1935 10.7438 20.851 11.7613 20.7471 12.0133C21.3885 12.7138 21.7766 13.6061 21.7766 14.6983C21.7766 18.5404 19.4365 19.3865 17.2089 19.6341C17.5677 19.9446 17.8874 20.5534 17.8874 21.4866C17.8874 22.825 17.8758 23.9023 17.8758 24.2318C17.8758 24.498 18.0559 24.81 18.563 24.7117C22.5355 23.3875 25.3982 19.6391 25.3982 15.2207C25.3982 9.69592 20.9194 5.21729 15.3948 5.21729Z" fill="white"/>
</svg>
