<svg width="31" height="30" viewBox="0 0 31 30" fill="none" xmlns="http://www.w3.org/2000/svg">
<path d="M27.2606 9.92716L24.0818 13.0626C23.4502 20.3438 17.2399 26 9.81916 26C8.2929 26 7.02979 25.7604 6.07193 25.2917C5.30354 24.9063 4.98776 24.5 4.90355 24.375C4.83388 24.2703 4.78899 24.1514 4.77222 24.0271C4.75544 23.9028 4.76722 23.7764 4.80668 23.6572C4.84614 23.5381 4.91226 23.4293 5.00011 23.3389C5.08796 23.2486 5.19528 23.179 5.31407 23.1354C5.33512 23.125 7.81924 22.1875 9.4297 20.3854C8.43094 19.6817 7.55309 18.8235 6.8298 17.8438C5.38775 15.9063 3.86149 12.5417 4.77724 7.52092C4.80603 7.37166 4.87502 7.23286 4.97692 7.11918C5.07882 7.00551 5.20985 6.92118 5.35617 6.87509C5.50296 6.82753 5.66014 6.82083 5.81051 6.85574C5.96089 6.89065 6.09867 6.96581 6.20877 7.07301C6.24035 7.11468 9.74548 10.5313 14.0295 11.6355V11.0001C14.0337 10.3394 14.1693 9.68592 14.4286 9.07707C14.6879 8.46822 15.0659 7.91588 15.5409 7.45158C16.0159 6.98729 16.5787 6.62014 17.1971 6.37109C17.8156 6.12205 18.4775 5.99598 19.1451 6.0001C20.0214 6.01247 20.8795 6.24924 21.6358 6.68737C22.3921 7.12549 23.0209 7.75001 23.4608 8.50009H26.6606C26.8269 8.49957 26.9896 8.54777 27.1282 8.6386C27.2668 8.72943 27.3751 8.85883 27.4396 9.0105C27.5002 9.16442 27.5156 9.3322 27.4839 9.49442C27.4523 9.65664 27.3749 9.80667 27.2606 9.92716V9.92716Z" fill="white"/>
</svg>
