<svg width="31" height="30" viewBox="0 0 31 30" fill="none" xmlns="http://www.w3.org/2000/svg">
<path d="M15.25 18.75C17.3211 18.75 19 17.0711 19 15C19 12.9289 17.3211 11.25 15.25 11.25C13.1789 11.25 11.5 12.9289 11.5 15C11.5 17.0711 13.1789 18.75 15.25 18.75Z" fill="white"/>
<path d="M20.4062 3.28125H10.0938C8.35327 3.28125 6.68407 3.97265 5.45336 5.20336C4.22265 6.43407 3.53125 8.10327 3.53125 9.84375V20.1562C3.53125 21.8967 4.22265 23.5659 5.45336 24.7966C6.68407 26.0273 8.35327 26.7188 10.0938 26.7188H20.4062C22.1467 26.7188 23.8159 26.0273 25.0466 24.7966C26.2773 23.5659 26.9688 21.8967 26.9688 20.1562V9.84375C26.9688 8.10327 26.2773 6.43407 25.0466 5.20336C23.8159 3.97265 22.1467 3.28125 20.4062 3.28125ZM15.25 20.625C14.1375 20.625 13.0499 20.2951 12.1249 19.677C11.1999 19.0589 10.4789 18.1804 10.0532 17.1526C9.62744 16.1248 9.51604 14.9938 9.73308 13.9026C9.95013 12.8115 10.4859 11.8092 11.2725 11.0225C12.0592 10.2359 13.0615 9.70013 14.1526 9.48308C15.2438 9.26604 16.3748 9.37744 17.4026 9.80318C18.4304 10.2289 19.3089 10.9499 19.927 11.8749C20.5451 12.7999 20.875 13.8875 20.875 15C20.875 16.4918 20.2824 17.9226 19.2275 18.9775C18.1726 20.0324 16.7418 20.625 15.25 20.625ZM21.3438 10.3125C21.0656 10.3125 20.7937 10.23 20.5625 10.0755C20.3312 9.92098 20.151 9.70136 20.0445 9.4444C19.9381 9.18744 19.9103 8.90469 19.9645 8.6319C20.0188 8.35912 20.1527 8.10855 20.3494 7.91188C20.546 7.71521 20.7966 7.58128 21.0694 7.52702C21.3422 7.47276 21.6249 7.50061 21.8819 7.60704C22.1389 7.71348 22.3585 7.89372 22.513 8.12498C22.6675 8.35624 22.75 8.62812 22.75 8.90625C22.75 9.27921 22.6018 9.6369 22.3381 9.90062C22.0744 10.1643 21.7167 10.3125 21.3438 10.3125Z" fill="white"/>
</svg>
