<svg width="31" height="30" viewBox="0 0 31 30" fill="none" xmlns="http://www.w3.org/2000/svg">
<path fill-rule="evenodd" clip-rule="evenodd" d="M10.598 17.2328C10.598 18.2184 9.80252 19.0139 8.81688 19.0139C7.83124 19.0139 7.03577 18.2157 7.03577 17.2328C7.03577 16.2498 7.83124 15.4517 8.81688 15.4517H10.598V17.2328ZM11.4872 17.2328C11.4872 16.2471 12.2827 15.4517 13.2683 15.4517C14.254 15.4517 15.0494 16.2471 15.0494 17.2328V21.6842C15.0494 22.6698 14.254 23.4653 13.2683 23.4653C12.2827 23.4653 11.4872 22.6698 11.4872 21.6842V17.2328Z" fill="white"/>
<path fill-rule="evenodd" clip-rule="evenodd" d="M13.2677 10.0842C12.282 10.0842 11.4866 9.28872 11.4866 8.30308C11.4866 7.31745 12.282 6.52197 13.2677 6.52197C14.2533 6.52197 15.0488 7.31745 15.0488 8.30308V10.0842H13.2677ZM13.2677 10.9868C14.2533 10.9868 15.0488 11.7823 15.0488 12.7679C15.0488 13.7536 14.2533 14.549 13.2677 14.549H8.80284C7.8172 14.549 7.02173 13.7509 7.02173 12.7679C7.02173 11.785 7.8172 10.9868 8.80284 10.9868H13.2677Z" fill="white"/>
<path fill-rule="evenodd" clip-rule="evenodd" d="M20.4024 12.7679C20.4024 11.7823 21.1978 10.9868 22.1835 10.9868C23.1691 10.9868 23.9646 11.7823 23.9646 12.7679C23.9646 13.7536 23.1691 14.549 22.1835 14.549H20.4024V12.7679ZM19.5132 12.7679C19.5132 13.7536 18.7177 14.549 17.732 14.549C16.7464 14.549 15.9509 13.7536 15.9509 12.7679V8.30308C15.9509 7.31745 16.7464 6.52197 17.732 6.52197C18.7177 6.52197 19.5132 7.31745 19.5132 8.30308V12.7679Z" fill="white"/>
<path fill-rule="evenodd" clip-rule="evenodd" d="M17.732 19.9031C18.7177 19.9031 19.5132 20.6986 19.5132 21.6842C19.5132 22.6698 18.7177 23.4653 17.732 23.4653C16.7464 23.4653 15.9509 22.6698 15.9509 21.6842V19.9031H17.732ZM17.732 19.0139C16.7464 19.0139 15.9509 18.2184 15.9509 17.2328C15.9509 16.2471 16.7464 15.4517 17.732 15.4517H22.1969C23.1825 15.4517 23.978 16.2471 23.978 17.2328C23.978 18.2184 23.1825 19.0139 22.1969 19.0139H17.732Z" fill="white"/>
</svg>
