<svg width="353" height="94" viewBox="0 0 353 94" fill="none" xmlns="http://www.w3.org/2000/svg">
<path d="M236.985 81.5195C237.844 81.5195 238.621 81.7135 239.317 82.1016C240.013 82.4782 240.558 83.0147 240.953 83.7109C241.347 84.4071 241.544 85.2003 241.544 86.0906C241.544 86.9808 241.347 87.774 240.953 88.4702C240.558 89.1664 240.013 89.7086 239.317 90.0966C238.621 90.4847 237.844 90.6787 236.985 90.6787C236.22 90.6787 235.53 90.5189 234.915 90.1993C234.312 89.8798 233.824 89.4175 233.453 88.8126V90.5931H232.27V77.8901H233.505V83.3C233.888 82.7179 234.375 82.2785 234.967 81.9818C235.57 81.6736 236.243 81.5195 236.985 81.5195ZM236.898 89.6001C237.536 89.6001 238.116 89.4575 238.639 89.1721C239.161 88.8754 239.567 88.4588 239.857 87.9224C240.158 87.386 240.309 86.7754 240.309 86.0906C240.309 85.4058 240.158 84.7951 239.857 84.2587C239.567 83.7223 239.161 83.3114 238.639 83.0261C238.116 82.7293 237.536 82.581 236.898 82.581C236.249 82.581 235.663 82.7293 235.141 83.0261C234.631 83.3114 234.225 83.7223 233.923 84.2587C233.633 84.7951 233.488 85.4058 233.488 86.0906C233.488 86.7754 233.633 87.386 233.923 87.9224C234.225 88.4588 234.631 88.8754 235.141 89.1721C235.663 89.4575 236.249 89.6001 236.898 89.6001Z" fill="#D7D7D7"/>
<path d="M251.499 81.588L246.923 91.6717C246.551 92.5163 246.122 93.1155 245.635 93.4693C245.148 93.8231 244.562 94 243.877 94C243.437 94 243.025 93.9315 242.642 93.7945C242.259 93.6576 241.929 93.4521 241.65 93.1782L242.224 92.2709C242.688 92.7274 243.245 92.9557 243.895 92.9557C244.312 92.9557 244.666 92.8415 244.956 92.6133C245.258 92.385 245.536 91.9969 245.791 91.4491L246.192 90.576L242.103 81.588H243.39L246.836 89.2406L250.281 81.588H251.499Z" fill="#D7D7D7"/>
<path d="M262.96 90.6958C261.383 90.6958 260.153 90.2507 259.272 89.3605C258.39 88.4702 257.949 87.1748 257.949 85.4742V78.6091H259.237V85.4229C259.237 86.8153 259.556 87.8539 260.194 88.5387C260.832 89.2235 261.754 89.5659 262.96 89.5659C264.179 89.5659 265.107 89.2235 265.745 88.5387C266.383 87.8539 266.702 86.8153 266.702 85.4229V78.6091H267.954V85.4742C267.954 87.1748 267.514 88.4702 266.632 89.3605C265.762 90.2507 264.538 90.6958 262.96 90.6958Z" fill="#D7D7D7"/>
<path d="M282.014 78.6091V90.5931H280.952L273.122 80.869V90.5931H271.834V78.6091H272.896L280.743 88.3333V78.6091H282.014Z" fill="#D7D7D7"/>
<path d="M285.989 78.6091H290.948C292.236 78.6091 293.373 78.8659 294.359 79.3795C295.345 79.8817 296.11 80.5893 296.655 81.5024C297.201 82.404 297.473 83.437 297.473 84.6011C297.473 85.7653 297.201 86.8039 296.655 87.717C296.11 88.6186 295.345 89.3262 294.359 89.8398C293.373 90.342 292.236 90.5931 290.948 90.5931H285.989V78.6091ZM290.879 89.4974C291.946 89.4974 292.88 89.292 293.68 88.8811C294.48 88.4588 295.101 87.8824 295.542 87.152C295.983 86.4101 296.203 85.5598 296.203 84.6011C296.203 83.6424 295.983 82.7978 295.542 82.0674C295.101 81.3255 294.48 80.7491 293.68 80.3382C292.88 79.9159 291.946 79.7048 290.879 79.7048H287.277V89.4974H290.879Z" fill="#D7D7D7"/>
<path d="M300.365 78.6091H301.652V90.5931H300.365V78.6091Z" fill="#D7D7D7"/>
<path d="M308.974 90.6958C308.069 90.6958 307.199 90.5532 306.364 90.2678C305.54 89.9825 304.902 89.6059 304.45 89.1379L304.954 88.1621C305.395 88.5958 305.981 88.9496 306.712 89.2235C307.442 89.486 308.196 89.6173 308.974 89.6173C310.064 89.6173 310.882 89.4232 311.427 89.0352C311.972 88.6357 312.245 88.1221 312.245 87.4944C312.245 87.015 312.094 86.6327 311.792 86.3474C311.502 86.062 311.143 85.8452 310.714 85.6968C310.284 85.537 309.687 85.3658 308.921 85.1832C308.005 84.9549 307.274 84.7381 306.729 84.5326C306.184 84.3158 305.714 83.9905 305.32 83.5568C304.937 83.1231 304.745 82.5353 304.745 81.7934C304.745 81.1885 304.908 80.6407 305.233 80.1499C305.557 79.6477 306.056 79.2483 306.729 78.9515C307.402 78.6548 308.237 78.5064 309.235 78.5064C309.931 78.5064 310.609 78.6034 311.27 78.7974C311.943 78.98 312.523 79.2368 313.01 79.5678L312.575 80.5779C312.065 80.2469 311.52 80.0015 310.94 79.8418C310.36 79.6706 309.791 79.585 309.235 79.585C308.167 79.585 307.361 79.7904 306.816 80.2013C306.282 80.6007 306.016 81.12 306.016 81.7592C306.016 82.2386 306.161 82.6266 306.451 82.9234C306.752 83.2087 307.123 83.4312 307.564 83.591C308.017 83.7394 308.62 83.9049 309.374 84.0875C310.267 84.3044 310.986 84.5212 311.531 84.7381C312.088 84.9435 312.558 85.2631 312.941 85.6968C313.324 86.1191 313.515 86.6955 313.515 87.4259C313.515 88.0308 313.347 88.5844 313.01 89.0865C312.686 89.5773 312.181 89.9711 311.497 90.2678C310.812 90.5532 309.971 90.6958 308.974 90.6958Z" fill="#D7D7D7"/>
<path d="M318.517 79.7048H314.237V78.6091H324.085V79.7048H319.805V90.5931H318.517V79.7048Z" fill="#D7D7D7"/>
<path d="M334.46 90.5931L331.675 86.7411C331.362 86.7754 331.037 86.7925 330.701 86.7925H327.43V90.5931H326.142V78.6091H330.701C332.256 78.6091 333.474 78.9743 334.355 79.7048C335.237 80.4352 335.678 81.4396 335.678 82.7179C335.678 83.6538 335.434 84.447 334.947 85.0976C334.471 85.7367 333.787 86.199 332.894 86.4843L335.869 90.5931H334.46ZM330.666 85.7139C331.873 85.7139 332.795 85.4514 333.433 84.9264C334.071 84.4014 334.39 83.6652 334.39 82.7179C334.39 81.7478 334.071 81.0059 333.433 80.4923C332.795 79.9673 331.873 79.7048 330.666 79.7048H327.43V85.7139H330.666Z" fill="#D7D7D7"/>
<path d="M344.041 90.6958C342.835 90.6958 341.738 90.4333 340.752 89.9083C339.778 89.3719 339.012 88.6414 338.456 87.717C337.91 86.7925 337.638 85.7539 337.638 84.6011C337.638 83.4484 337.91 82.4098 338.456 81.4853C339.012 80.5608 339.778 79.836 340.752 79.311C341.738 78.7746 342.835 78.5064 344.041 78.5064C345.247 78.5064 346.332 78.7689 347.295 79.2939C348.269 79.8189 349.035 80.5494 349.592 81.4853C350.149 82.4098 350.427 83.4484 350.427 84.6011C350.427 85.7539 350.149 86.7982 349.592 87.7341C349.035 88.6585 348.269 89.3833 347.295 89.9083C346.332 90.4333 345.247 90.6958 344.041 90.6958ZM344.041 89.5659C345.004 89.5659 345.874 89.3548 346.651 88.9325C347.428 88.4988 348.037 87.9053 348.478 87.152C348.919 86.3873 349.139 85.537 349.139 84.6011C349.139 83.6652 348.919 82.8206 348.478 82.0674C348.037 81.3027 347.428 80.7092 346.651 80.2869C345.874 79.8532 345.004 79.6363 344.041 79.6363C343.078 79.6363 342.202 79.8532 341.414 80.2869C340.636 80.7092 340.022 81.3027 339.569 82.0674C339.128 82.8206 338.908 83.6652 338.908 84.6011C338.908 85.537 339.128 86.3873 339.569 87.152C340.022 87.9053 340.636 88.4988 341.414 88.9325C342.202 89.3548 343.078 89.5659 344.041 89.5659Z" fill="#D7D7D7"/>
<path d="M111.34 52.6949C110.127 52.6949 109.449 51.296 110.2 50.3439L117.063 41.6467L124.391 32.3334L140.529 11.6979L147.673 2.63486C148.424 1.6827 147.745 0.284454 146.533 0.284454H134.964H86.2378C85.4361 0.284454 84.7861 0.934408 84.7861 1.73617V10.2462C84.7861 11.0479 85.4361 11.6979 86.2378 11.6979H123.072C124.283 11.6979 124.962 13.0946 124.213 14.047L117.156 23.02L109.829 32.3334L93.8757 52.6949L84.9716 64.1084V64.1084C84.9376 64.1418 84.9613 64.1997 85.009 64.1997H99.4684C99.5101 64.1997 99.5501 64.1833 99.5798 64.154V64.154C99.6095 64.1248 99.6496 64.1084 99.6913 64.1084H148.352C149.154 64.1084 149.804 63.4584 149.804 62.6567V54.1467C149.804 53.3449 149.154 52.6949 148.352 52.6949H111.34Z" fill="white"/>
<path d="M181.864 0.284454C163.963 0.284454 149.401 14.6197 149.401 32.2421C149.401 49.8644 163.963 64.1997 181.864 64.1997C199.765 64.1997 214.326 49.8644 214.326 32.2421C214.326 14.6197 199.765 0.284454 181.864 0.284454ZM181.864 52.7863C170.363 52.7863 160.995 43.5642 160.995 32.2421C160.995 20.9199 170.363 11.6979 181.864 11.6979C193.365 11.6979 202.733 20.9199 202.733 32.2421C202.733 43.5642 193.365 52.7863 181.864 52.7863Z" fill="white"/>
<path d="M265.457 36.591C264.996 35.6829 265.591 34.5906 266.581 34.3541C267.59 34.1132 268.566 33.7744 269.509 33.3378C275.537 30.5985 279.711 24.5722 279.711 17.6329C279.711 12.8849 277.763 8.59344 274.61 5.48898C271.456 2.38453 267.097 0.467072 262.274 0.467072H222.73C221.928 0.467072 221.278 1.11703 221.278 1.91878V62.9306C221.278 63.7323 221.928 64.3823 222.73 64.3823H231.42C232.222 64.3823 232.872 63.7323 232.872 62.9306V36.433C232.872 35.6312 233.522 34.9813 234.324 34.9813H244.466C248.64 34.9813 252.257 37.1727 254.298 40.4597L254.576 41.0076L260.79 52.9689L266.319 63.6004C266.569 64.0809 267.066 64.3823 267.607 64.3823H277.32C278.409 64.3823 279.11 63.2272 278.608 62.2607L273.775 52.9689L265.457 36.591ZM234.328 23.6546C233.525 23.6571 232.872 23.0065 232.872 22.2029V13.3322C232.872 12.5305 233.522 11.8805 234.324 11.8805H262.274C264.315 11.8805 265.706 12.7936 266.448 13.524C267.097 14.1632 268.21 15.6241 268.21 17.7242C268.21 20.0069 266.819 22.1069 264.686 23.02C263.944 23.3852 263.109 23.5679 262.274 23.5679L234.328 23.6546Z" fill="white"/>
<path d="M345.7 52.7863L319.814 2.77517C319.272 1.72933 317.776 1.72933 317.235 2.77517L291.348 52.7863L286.516 62.0781C286.013 63.0445 286.714 64.1997 287.804 64.1997H297.516C298.058 64.1997 298.554 63.8983 298.804 63.4178L304.333 52.7863L317.235 27.8822C317.777 26.8369 319.272 26.8369 319.813 27.8822L332.715 52.7863L338.244 63.4178C338.494 63.8983 338.991 64.1997 339.532 64.1997H349.245C350.334 64.1997 351.035 63.0445 350.533 62.0781L345.7 52.7863Z" fill="white"/>
<path d="M300.698 42.8214H336.929V52.0949H300.698V42.8214Z" fill="white"/>
<rect x="0.685059" width="66.7009" height="66.5231" rx="7.25856" fill="#3CA9DD"/>
<path d="M47.181 39.1037V26.3216C47.18 26.137 47.1294 25.9559 47.0343 25.7966C46.9392 25.6372 46.803 25.5053 46.6394 25.4142L35.0154 18.9972C34.8588 18.9084 34.6812 18.8617 34.5003 18.8617C34.3194 18.8617 34.1418 18.9084 33.9851 18.9972L22.3612 25.4142C22.1976 25.5053 22.0614 25.6372 21.9663 25.7966C21.8712 25.9559 21.8206 26.137 21.8196 26.3216V39.1037C21.8206 39.2883 21.8712 39.4694 21.9663 39.6288C22.0614 39.7881 22.1976 39.92 22.3612 40.0112L33.9851 46.4281C34.1418 46.5169 34.3194 46.5636 34.5003 46.5636C34.6812 46.5636 34.8588 46.5169 35.0154 46.4281L46.6394 40.0112C46.803 39.92 46.9392 39.7881 47.0343 39.6288C47.1294 39.4694 47.18 39.2883 47.181 39.1037V39.1037Z" stroke="#191A1D" stroke-width="2.32099" stroke-linecap="round" stroke-linejoin="round"/>
<path opacity="0.9" d="M53.8232 42.5567V22.8687C53.8217 22.5843 53.7446 22.3053 53.5997 22.0599C53.4548 21.8145 53.2473 21.6114 52.998 21.4709L35.2852 11.587C35.0466 11.4503 34.7758 11.3783 34.5002 11.3783C34.2246 11.3783 33.9539 11.4503 33.7152 11.587L16.0025 21.4709C15.7532 21.6114 15.5457 21.8145 15.4008 22.0599C15.2559 22.3053 15.1788 22.5843 15.1772 22.8687V42.5567C15.1788 42.8411 15.2559 43.12 15.4008 43.3654C15.5457 43.6108 15.7532 43.814 16.0025 43.9544L33.7152 53.8384C33.9539 53.975 34.2246 54.047 34.5002 54.047C34.7758 54.047 35.0466 53.975 35.2852 53.8384L52.998 43.9544C53.2473 43.814 53.4548 43.6108 53.5997 43.3654C53.7446 43.12 53.8217 42.8411 53.8232 42.5567V42.5567Z" stroke="#191A1D" stroke-width="2.32099" stroke-linecap="round" stroke-linejoin="round"/>
<path d="M47.0357 25.7901L34.6191 32.7127L21.9648 25.7901" stroke="#191A1D" stroke-width="2.32099" stroke-linecap="round" stroke-linejoin="round"/>
<path d="M34.6193 32.7126L34.5002 46.5577" stroke="#191A1D" stroke-width="2.32099" stroke-linecap="round" stroke-linejoin="round"/>
<path d="M40.9727 22.277L34.5003 25.8549L28.0278 22.277" stroke="#191A1D" stroke-width="2.32099" stroke-linecap="round" stroke-linejoin="round"/>
<path d="M40.8406 43.2132V36.0702L44.0108 34.3202L47.1809 32.5701" stroke="#191A1D" stroke-width="2.32099" stroke-linecap="round" stroke-linejoin="round"/>
<path d="M28.1599 43.2132V36.0702L21.8196 32.5701" stroke="#191A1D" stroke-width="2.32099" stroke-linecap="round" stroke-linejoin="round"/>
</svg>
